# Blender v2.81 (sub 11) OBJ File: ''
# www.blender.org
mtllib wood_fence_m2_t1_tri.mtl
o wood_fence_m2_t1
v -2.000000 -0.550005 17.999996
v -6.999996 -0.550005 17.999996
v -6.999996 -0.550004 9.999999
v -2.000000 -0.550004 9.999999
v -6.999996 199.448502 17.000029
v -6.999996 199.448502 10.000029
v -2.000000 199.448502 17.000029
v -2.000000 199.448502 10.000029
v -2.000000 -0.550019 106.999992
v -6.999996 -0.550019 106.999992
v -6.999996 -0.550018 100.000000
v -2.000000 -0.550018 100.000000
v -2.150097 166.118484 107.000023
v -6.999996 199.448486 107.000023
v -6.999996 199.448486 100.000031
v -2.150097 166.118469 100.000031
v -2.000000 199.448486 107.000023
v -2.000000 199.448486 100.000031
v 2.849899 32.783310 107.000000
v 2.849899 32.783321 100.000008
v 2.849899 166.118484 100.000031
v -2.150097 32.783318 107.000000
v 2.849899 166.118469 107.000023
v 0.759843 132.783310 107.000015
v 5.759840 132.783310 107.000015
v 2.053150 99.449982 107.000008
v 7.053146 99.449982 107.000008
v 0.759843 66.116661 107.000000
v 5.759840 66.116646 107.000000
v -2.150097 32.783314 100.000008
v 0.759843 66.116646 100.000008
v 5.759840 66.116661 100.000008
v 2.053150 99.449982 100.000015
v 7.053146 99.449982 100.000015
v 0.759843 132.783310 100.000023
v 5.759840 132.783310 100.000023
v 0.872353 2.306835 150.000000
v -1.387553 2.306835 150.000000
v -2.000001 2.306860 0.000000
v 0.259904 2.306860 0.000000
v 1.886878 18.079458 150.000000
v -2.000001 18.079483 0.000003
v 4.146783 18.079458 150.000000
v 0.259904 18.079483 0.000003
v -7.000000 -5.573145 130.000000
v -16.999996 -5.573145 130.000000
v -16.999996 -5.573121 -19.999998
v -7.000000 -5.573121 -19.999998
v -16.999996 4.426846 130.000000
v -16.999996 4.426870 -19.999998
v -7.000000 4.426846 130.000000
v -7.000000 4.426870 -19.999998
v 7.780781 18.880878 149.834869
v 5.783734 18.880878 149.943542
v -2.366389 18.880903 0.165126
v -0.369342 18.880903 0.056455
v 5.783734 32.130264 149.943542
v -2.366389 32.130287 0.165128
v 7.780781 32.130264 149.834869
v -0.369342 32.130287 0.056457
v 7.076119 32.374977 143.943970
v 5.078880 32.374977 144.049057
v -2.802403 33.242630 -5.743753
v -0.805165 33.242630 -5.848836
v 5.078880 45.242596 144.049057
v -2.802403 45.242619 -5.743751
v 7.076119 45.242596 143.943970
v -0.805165 45.242619 -5.848834
v 11.624331 47.648521 149.700653
v 8.981711 47.648521 149.895081
v -2.024084 47.648544 0.299366
v 0.618536 47.648544 0.104948
v 8.981711 62.625778 149.895081
v -2.024084 62.625801 0.299368
v 11.624331 62.625778 149.700653
v 0.618536 62.625801 0.104950
v 12.566781 63.950523 151.988190
v 10.317859 63.950520 152.210709
v -1.987577 63.950546 2.939569
v 0.261346 63.950546 2.717052
v 10.317859 75.117592 152.210709
v -1.987577 75.950531 2.939570
v 12.566781 75.117592 151.988190
v 0.261346 75.950531 2.717054
v 14.262369 76.533974 150.000015
v 11.612606 76.533974 150.000015
v -0.706694 76.533997 0.000012
v 1.943067 76.533997 0.000012
v 10.319300 91.511230 150.000015
v -2.000001 91.511253 0.000015
v 12.969062 91.511230 150.000015
v 0.649761 91.511253 0.000015
v 10.812073 104.261139 150.000015
v -2.000001 104.261162 0.000017
v 12.812074 104.261139 150.000015
v 0.000000 104.261162 0.000017
v 12.086432 106.868385 150.000015
v 9.826527 106.868385 150.000015
v -2.000001 106.868408 0.000017
v 0.259904 106.868408 0.000017
v 9.826527 122.641006 150.000015
v -2.000001 122.641029 0.000020
v 12.086432 122.641006 150.000015
v 0.259904 122.641029 0.000020
v 9.129801 138.805496 150.000015
v 6.869895 138.805496 150.000015
v -2.000001 138.805527 0.000023
v 0.259904 138.805527 0.000023
v 6.869895 149.972565 150.000031
v -2.000001 150.805527 0.000025
v 9.129801 149.972565 150.000031
v 0.259904 150.805527 0.000025
v 10.348212 124.102417 147.121414
v 8.348211 124.102417 147.121414
v -2.000001 124.102440 -2.878574
v 0.000000 124.102440 -2.878574
v 8.348211 137.351807 147.121414
v -2.000001 137.351837 -2.878572
v 10.348212 137.351807 147.121414
v 0.000000 137.351837 -2.878572
v 3.709308 170.285248 150.000031
v 1.449403 170.285248 150.000031
v -2.000001 170.285278 0.000028
v 0.259904 170.285278 0.000028
v 1.449403 183.634888 150.000031
v -2.000001 184.630630 0.000030
v 3.709308 183.634888 150.000031
v 0.259904 184.630630 0.000030
v 6.173168 151.774841 150.000031
v 3.913262 151.774841 150.000031
v 3.913262 154.653473 0.000025
v 6.173168 154.653473 0.000025
v 3.913262 167.547470 150.000031
v 3.913262 170.426102 0.000028
v 6.173168 167.547470 150.000031
v 6.173168 170.426102 0.000028
v -0.859325 198.984848 150.000031
v -2.000001 198.984879 0.000032
v 1.140676 198.984848 150.000031
v 0.000000 198.984879 0.000032
vt 0.747599 0.901937
vt 0.765659 0.873040
vt 0.765659 0.901937
vt 0.732438 0.857138
vt 0.010177 0.886793
vt 0.010002 0.857897
vt 0.748123 0.857791
vt 0.766184 0.832506
vt 0.766184 0.857791
vt 0.732419 0.839078
vt 0.010097 0.810938
vt 0.732519 0.813794
vt 0.010169 0.792878
vt 0.009983 0.839835
vt 0.748674 0.946325
vt 0.766735 0.921040
vt 0.766735 0.946325
vt 0.612010 0.964267
vt 0.732415 0.989552
vt 0.612010 0.989552
vt 0.746942 0.812033
vt 0.765003 0.786749
vt 0.765003 0.812033
vt 0.009983 0.946207
vt 0.130388 0.920922
vt 0.130388 0.946207
vt 0.612010 0.902862
vt 0.732415 0.920922
vt 0.612010 0.920922
vt 0.130388 0.964267
vt 0.732415 0.946206
vt 0.612010 0.946206
vt 0.491604 0.964267
vt 0.491604 0.946206
vt 0.371199 0.964267
vt 0.371199 0.946207
vt 0.250794 0.946207
vt 0.250794 0.964267
vt 0.009983 0.920922
vt 0.130388 0.902862
vt 0.250794 0.902862
vt 0.250794 0.920922
vt 0.371199 0.902862
vt 0.371199 0.920922
vt 0.491604 0.920922
vt 0.491604 0.902862
vt 0.009983 0.964267
vt 0.130388 0.989552
vt 0.009983 0.989552
vt 0.250794 0.989552
vt 0.371199 0.989552
vt 0.491604 0.989552
vt 0.674132 0.751784
vt 0.685134 0.121518
vt 0.685134 0.751811
vt 0.607857 0.121492
vt 0.674133 0.121492
vt 0.762411 0.751837
vt 0.751410 0.121518
vt 0.762411 0.121544
vt 0.751410 0.751811
vt 0.607857 0.111996
vt 0.674133 0.111996
vt 0.607857 0.751784
vt 0.674132 0.761280
vt 0.607857 0.761280
vt 0.831821 0.984064
vt 0.882363 0.225918
vt 0.882364 0.984064
vt 0.781277 0.984064
vt 0.831820 0.225918
vt 0.932907 0.984064
vt 0.983450 0.225918
vt 0.983450 0.984064
vt 0.932907 0.225918
vt 0.833940 0.158062
vt 0.782195 0.209808
vt 0.782194 0.158062
vt 0.902151 0.157005
vt 0.850406 0.208750
vt 0.850406 0.157005
vt 0.236744 0.759138
vt 0.247637 0.135121
vt 0.247637 0.759183
vt 0.181621 0.759138
vt 0.236744 0.135076
vt 0.302760 0.759183
vt 0.313652 0.135166
vt 0.313652 0.759228
vt 0.302760 0.135121
vt 0.181621 0.126755
vt 0.236744 0.126755
vt 0.236744 0.767459
vt 0.181621 0.767459
vt 0.392839 0.760005
vt 0.378353 0.136641
vt 0.389234 0.136623
vt 0.328482 0.760023
vt 0.381959 0.760023
vt 0.457192 0.759305
vt 0.439101 0.136046
vt 0.449981 0.135965
vt 0.446312 0.759386
vt 0.328483 0.128329
vt 0.378353 0.128329
vt 0.381959 0.768335
vt 0.328482 0.768335
vt 0.090455 0.762182
vt 0.079212 0.125740
vt 0.090455 0.125740
vt 0.015664 0.762182
vt 0.079212 0.762182
vt 0.154003 0.762182
vt 0.165245 0.125740
vt 0.165245 0.762182
vt 0.154002 0.125740
vt 0.015665 0.114497
vt 0.079212 0.114497
vt 0.079212 0.773425
vt 0.015664 0.773425
vt 0.528445 0.757015
vt 0.517693 0.128523
vt 0.528663 0.128553
vt 0.470689 0.756969
vt 0.517476 0.756985
vt 0.575232 0.757031
vt 0.589908 0.128661
vt 0.586202 0.757122
vt 0.578939 0.128570
vt 0.467420 0.119037
vt 0.517696 0.119055
vt 0.517473 0.766453
vt 0.470685 0.766437
vt 0.079212 0.762182
vt 0.090455 0.125740
vt 0.090455 0.762182
vt 0.015664 0.762182
vt 0.079212 0.125740
vt 0.154003 0.762182
vt 0.154002 0.125740
vt 0.015665 0.114497
vt 0.079212 0.114497
vt 0.015664 0.773425
vt 0.079212 0.773425
vt 0.381959 0.760023
vt 0.328483 0.136641
vt 0.378353 0.136641
vt 0.457192 0.759305
vt 0.439101 0.136046
vt 0.449981 0.135965
vt 0.446312 0.759386
vt 0.389234 0.136623
vt 0.328483 0.128329
vt 0.378353 0.128329
vt 0.328482 0.760023
vt 0.381959 0.768335
vt 0.328482 0.768335
vt 0.674132 0.751784
vt 0.685134 0.121518
vt 0.685134 0.751811
vt 0.607857 0.751784
vt 0.674133 0.121492
vt 0.762411 0.751837
vt 0.751410 0.121518
vt 0.762411 0.121544
vt 0.751410 0.751811
vt 0.607857 0.111996
vt 0.674133 0.111996
vt 0.674132 0.761280
vt 0.607857 0.761280
vt 0.517476 0.756985
vt 0.528663 0.128553
vt 0.528445 0.757015
vt 0.470689 0.756969
vt 0.517693 0.128523
vt 0.586202 0.757122
vt 0.578939 0.128570
vt 0.589908 0.128661
vt 0.575232 0.757031
vt 0.467420 0.119037
vt 0.517696 0.119055
vt 0.517473 0.766453
vt 0.470685 0.766437
vt 0.236744 0.759138
vt 0.247637 0.135121
vt 0.247637 0.759183
vt 0.181621 0.759138
vt 0.236744 0.135076
vt 0.313652 0.759228
vt 0.302760 0.135121
vt 0.313652 0.135166
vt 0.302760 0.759183
vt 0.181621 0.126755
vt 0.236744 0.126755
vt 0.236744 0.767459
vt 0.181621 0.767459
vt 0.517476 0.756985
vt 0.528663 0.128553
vt 0.528445 0.757015
vt 0.470689 0.756969
vt 0.517693 0.128523
vt 0.575232 0.757031
vt 0.578939 0.128570
vt 0.467420 0.119037
vt 0.517696 0.119055
vt 0.517473 0.766453
vt 0.470685 0.766437
vt 0.674132 0.751784
vt 0.685134 0.121518
vt 0.685134 0.751811
vt 0.607857 0.751784
vt 0.674133 0.121492
vt 0.751410 0.751811
vt 0.762411 0.121544
vt 0.762411 0.751837
vt 0.751410 0.121518
vt 0.607857 0.111996
vt 0.674133 0.111996
vt 0.674132 0.761280
vt 0.607857 0.761280
vt 0.328482 0.760023
vt 0.378353 0.136641
vt 0.381959 0.760023
vt 0.457192 0.759305
vt 0.439101 0.136046
vt 0.449981 0.135965
vt 0.446312 0.759386
vt 0.389234 0.136623
vt 0.328483 0.128329
vt 0.378353 0.128329
vt 0.328482 0.768335
vt 0.381959 0.768335
vt 0.747599 0.873040
vt 0.732591 0.882423
vt 0.748123 0.832506
vt 0.732590 0.795734
vt 0.748674 0.921040
vt 0.732415 0.964267
vt 0.746943 0.786749
vt 0.732415 0.902862
vt 0.009983 0.902862
vt 0.781277 0.225918
vt 0.833940 0.209808
vt 0.902151 0.208750
vt 0.181622 0.135076
vt 0.328483 0.136641
vt 0.015665 0.125740
vt 0.467417 0.128506
vt 0.015665 0.125740
vt 0.392839 0.760005
vt 0.607857 0.121492
vt 0.467417 0.128506
vt 0.181622 0.135076
vt 0.467417 0.128506
vt 0.607857 0.121492
vt 0.328483 0.136641
vt 0.392839 0.760005
vn 0.0000 -1.0000 -0.0000
vn -1.0000 -0.0000 0.0000
vn 0.0000 1.0000 0.0000
vn 1.0000 0.0000 0.0000
vn 0.0000 0.0000 -1.0000
vn 0.0000 0.0050 1.0000
vn -0.9933 -0.1155 0.0000
vn -0.9896 -0.1440 0.0000
vn 0.9896 -0.1440 -0.0000
vn 0.9933 -0.1155 -0.0000
vn 0.0000 -0.0000 1.0000
vn 0.9896 0.1440 0.0000
vn 0.9933 0.1155 0.0000
vn 0.9980 0.0629 0.0000
vn 0.9980 -0.0629 -0.0000
vn -0.9896 0.1440 -0.0000
vn -0.9933 0.1155 -0.0000
vn -0.9980 0.0629 -0.0000
vn -0.9980 -0.0629 0.0000
vn -0.9815 0.1899 0.0240
vn -0.9999 0.0138 0.0055
vn -1.0000 -0.0000 0.0041
vn 0.9815 -0.1899 -0.0240
vn 0.9999 -0.0138 -0.0055
vn 0.9788 -0.2032 -0.0254
vn -0.9985 -0.0000 0.0543
vn 0.9985 0.0000 -0.0543
vn -0.0543 0.0000 -0.9985
vn 0.0543 0.0000 0.9985
vn -0.0003 -1.0000 -0.0058
vn -0.9986 -0.0000 0.0525
vn 0.9986 0.0000 -0.0525
vn -0.0525 0.0000 -0.9986
vn 0.0526 0.0000 0.9986
vn 0.0525 0.0000 0.9986
vn -0.9973 -0.0000 0.0734
vn 0.9973 -0.0000 -0.0734
vn -0.0734 0.0000 -0.9973
vn 0.0734 0.0000 0.9973
vn -0.9966 -0.0000 0.0822
vn 0.0005 1.0000 0.0055
vn 0.9966 -0.0000 -0.0822
vn -0.0985 0.0000 -0.9951
vn 0.0985 0.0000 0.9951
vn -0.9930 -0.0857 0.0816
vn 0.9930 0.0857 -0.0816
vn -0.9957 0.0364 0.0849
vn -0.9966 0.0021 0.0820
vn -0.9966 -0.0000 0.0819
vn 0.9965 0.0143 -0.0820
vn 0.9952 0.0487 -0.0848
vn 0.9951 0.0507 -0.0850
vn -0.9969 -0.0000 0.0786
vn 0.9969 -0.0000 -0.0786
vn -0.9983 -0.0000 0.0590
vn 0.0000 1.0000 0.0056
vn 0.9983 0.0000 -0.0590
vn -0.9976 -0.0000 0.0688
vn 0.9976 0.0000 -0.0688
vn -0.9997 -0.0000 0.0230
vn 0.9997 -0.0000 -0.0230
vn 0.0000 -0.9998 -0.0192
vn 0.0000 0.9998 0.0192
vn -0.9900 -0.1398 0.0209
vn -0.9999 -0.0097 0.0085
vn -0.9886 -0.1487 0.0217
vn 0.9875 0.1562 -0.0207
vn 0.9996 0.0277 -0.0085
vn 0.9998 0.0181 -0.0076
vn -0.9788 0.2032 0.0254
vn 1.0000 -0.0000 -0.0041
vn -0.9956 0.0385 0.0850
vn 0.9966 0.0123 -0.0818
vn -1.0000 -0.0000 0.0076
vn 0.9861 0.1650 -0.0216
usemtl wood_fence_t1_m.001
s 1
f 2/1/1 4/2/1 1/3/1
f 5/4/2 3/5/2 2/6/2
f 7/7/3 6/8/3 5/9/3
f 7/10/4 4/11/4 8/12/4
f 3/13/5 8/12/5 4/11/5
f 5/4/6 1/14/6 7/10/6
f 10/15/1 12/16/1 9/17/1
f 13/18/7 15/19/8 16/20/7
f 17/21/3 15/22/3 14/23/3
f 9/24/9 20/25/10 19/26/10
f 16/27/5 18/28/5 21/29/5
f 22/30/11 9/24/11 19/26/11
f 17/31/11 13/18/11 23/32/11
f 23/32/11 24/33/11 25/34/11
f 25/34/11 26/35/11 27/36/11
f 26/35/11 29/37/11 27/36/11
f 28/38/11 19/26/11 29/37/11
f 12/39/5 30/40/5 20/25/5
f 20/25/5 31/41/5 32/42/5
f 32/42/5 33/43/5 34/44/5
f 33/43/5 36/45/5 34/44/5
f 35/46/5 21/29/5 36/45/5
f 17/31/12 21/29/13 18/28/12
f 23/32/13 36/45/14 21/29/13
f 27/36/4 36/45/14 25/34/14
f 27/36/4 32/42/15 34/44/4
f 29/37/15 20/25/10 32/42/15
f 10/47/16 30/48/17 11/49/16
f 22/30/17 31/50/18 30/48/17
f 28/38/18 33/51/2 31/50/18
f 24/33/19 33/51/2 26/35/2
f 24/33/19 16/20/7 35/52/19
f 38/53/1 40/54/1 37/55/1
f 38/53/20 42/56/21 39/57/22
f 41/58/3 44/59/3 42/60/3
f 37/55/23 44/59/24 43/61/25
f 39/57/5 44/62/5 40/63/5
f 41/64/11 37/65/11 43/66/11
f 46/67/1 48/68/1 45/69/1
f 49/70/2 47/71/2 46/67/2
f 51/72/3 50/73/3 49/74/3
f 45/69/4 52/75/4 51/72/4
f 47/76/5 52/77/5 48/78/5
f 49/79/11 45/80/11 51/81/11
f 54/82/1 56/83/1 53/84/1
f 57/85/26 55/86/26 54/82/26
f 59/87/3 58/88/3 57/89/3
f 53/84/27 60/90/27 59/87/27
f 55/86/28 60/91/28 56/92/28
f 57/85/29 53/93/29 59/94/29
f 61/95/30 63/96/30 64/97/30
f 65/98/31 63/96/31 62/99/31
f 65/100/3 68/101/3 66/102/3
f 67/103/32 64/97/32 68/101/32
f 63/96/33 68/104/33 64/105/33
f 65/98/34 61/106/35 67/107/34
f 69/108/1 71/109/1 72/110/1
f 73/111/36 71/109/36 70/112/36
f 75/113/3 74/114/3 73/115/3
f 69/108/37 76/116/37 75/113/37
f 71/109/38 76/117/38 72/118/38
f 73/111/39 69/119/39 75/120/39
f 77/121/1 79/122/1 80/123/1
f 81/124/40 79/122/40 78/125/40
f 83/126/41 82/127/41 81/128/41
f 83/126/42 80/123/42 84/129/42
f 79/122/43 84/130/43 80/131/43
f 81/124/44 77/132/44 83/133/44
f 86/134/1 88/135/1 85/136/1
f 89/137/45 87/138/45 86/134/45
f 91/139/46 88/135/46 92/140/46
f 87/138/5 92/141/5 88/142/5
f 91/143/11 86/134/11 85/144/11
f 89/145/47 94/146/48 90/147/49
f 93/148/3 96/149/3 94/150/3
f 95/151/50 92/152/51 96/149/52
f 90/147/5 96/153/5 92/154/5
f 93/155/11 91/156/11 95/157/11
f 98/158/1 100/159/1 97/160/1
f 101/161/53 99/162/53 98/158/53
f 101/163/3 104/164/3 102/165/3
f 97/160/54 104/164/54 103/166/54
f 99/162/5 104/167/5 100/168/5
f 101/161/11 97/169/11 103/170/11
f 106/171/1 108/172/1 105/173/1
f 109/174/55 107/175/55 106/171/55
f 109/176/56 112/177/56 110/178/56
f 111/179/57 108/172/57 112/177/57
f 107/175/5 112/180/5 108/181/5
f 109/174/11 105/182/11 111/183/11
f 114/184/1 116/185/1 113/186/1
f 117/187/58 115/188/58 114/184/58
f 117/189/3 120/190/3 118/191/3
f 113/186/59 120/190/59 119/192/59
f 115/188/5 120/193/5 116/194/5
f 117/187/11 113/195/11 119/196/11
f 122/197/1 124/198/1 121/199/1
f 125/200/60 123/201/60 122/197/60
f 127/202/61 124/198/61 128/203/61
f 123/201/5 128/204/5 124/205/5
f 125/200/11 121/206/11 127/207/11
f 130/208/62 132/209/62 129/210/62
f 133/211/2 131/212/2 130/208/2
f 135/213/63 134/214/63 133/215/63
f 135/213/4 132/209/4 136/216/4
f 131/212/5 136/217/5 132/218/5
f 133/211/11 129/219/11 135/220/11
f 137/221/64 126/222/65 125/223/66
f 137/224/3 140/225/3 138/226/3
f 139/227/67 128/228/68 140/225/69
f 126/222/5 140/229/5 128/230/5
f 139/231/11 125/223/11 127/232/11
f 2/1/1 3/233/1 4/2/1
f 5/4/2 6/234/2 3/5/2
f 7/7/3 8/235/3 6/8/3
f 7/10/4 1/14/4 4/11/4
f 3/13/5 6/236/5 8/12/5
f 5/4/6 2/6/6 1/14/6
f 10/15/1 11/237/1 12/16/1
f 13/18/7 14/238/8 15/19/8
f 17/21/3 18/239/3 15/22/3
f 9/24/9 12/39/9 20/25/10
f 16/27/5 15/240/5 18/28/5
f 22/30/11 10/47/11 9/24/11
f 17/31/11 14/238/11 13/18/11
f 23/32/11 13/18/11 24/33/11
f 25/34/11 24/33/11 26/35/11
f 26/35/11 28/38/11 29/37/11
f 28/38/11 22/30/11 19/26/11
f 12/39/5 11/241/5 30/40/5
f 20/25/5 30/40/5 31/41/5
f 32/42/5 31/41/5 33/43/5
f 33/43/5 35/46/5 36/45/5
f 35/46/5 16/27/5 21/29/5
f 17/31/12 23/32/13 21/29/13
f 23/32/13 25/34/14 36/45/14
f 27/36/4 34/44/4 36/45/14
f 27/36/4 29/37/15 32/42/15
f 29/37/15 19/26/10 20/25/10
f 10/47/16 22/30/17 30/48/17
f 22/30/17 28/38/18 31/50/18
f 28/38/18 26/35/2 33/51/2
f 24/33/19 35/52/19 33/51/2
f 24/33/19 13/18/7 16/20/7
f 38/53/1 39/57/1 40/54/1
f 38/53/20 41/64/70 42/56/21
f 41/58/3 43/61/3 44/59/3
f 37/55/23 40/54/71 44/59/24
f 39/57/5 42/56/5 44/62/5
f 41/64/11 38/53/11 37/65/11
f 46/67/1 47/71/1 48/68/1
f 49/70/2 50/242/2 47/71/2
f 51/72/3 52/75/3 50/73/3
f 45/69/4 48/68/4 52/75/4
f 47/76/5 50/243/5 52/77/5
f 49/79/11 46/244/11 45/80/11
f 54/82/1 55/86/1 56/83/1
f 57/85/26 58/245/26 55/86/26
f 59/87/3 60/90/3 58/88/3
f 53/84/27 56/83/27 60/90/27
f 55/86/28 58/245/28 60/91/28
f 57/85/29 54/82/29 53/93/29
f 61/95/30 62/99/30 63/96/30
f 65/98/31 66/246/31 63/96/31
f 65/100/3 67/103/3 68/101/3
f 67/103/32 61/95/32 64/97/32
f 63/96/33 66/246/33 68/104/33
f 65/98/34 62/99/35 61/106/35
f 69/108/1 70/112/1 71/109/1
f 73/111/36 74/247/36 71/109/36
f 75/113/3 76/116/3 74/114/3
f 69/108/37 72/110/37 76/116/37
f 71/109/38 74/247/38 76/117/38
f 73/111/39 70/112/39 69/119/39
f 77/121/1 78/125/1 79/122/1
f 81/124/40 82/248/40 79/122/40
f 83/126/41 84/129/41 82/127/41
f 83/126/42 77/121/42 80/123/42
f 79/122/43 82/248/43 84/130/43
f 81/124/44 78/125/44 77/132/44
f 86/134/1 87/138/1 88/135/1
f 89/137/45 90/249/45 87/138/45
f 91/139/46 85/136/46 88/135/46
f 87/138/5 90/249/5 92/141/5
f 91/143/11 89/137/11 86/134/11
f 89/145/47 93/155/72 94/146/48
f 93/148/3 95/151/3 96/149/3
f 95/151/50 91/250/73 92/152/51
f 90/147/5 94/146/5 96/153/5
f 93/155/11 89/145/11 91/156/11
f 98/158/1 99/162/1 100/159/1
f 101/161/53 102/251/53 99/162/53
f 101/163/3 103/166/3 104/164/3
f 97/160/54 100/159/54 104/164/54
f 99/162/5 102/251/5 104/167/5
f 101/161/11 98/158/11 97/169/11
f 106/171/1 107/175/1 108/172/1
f 109/174/55 110/252/55 107/175/55
f 109/176/56 111/179/56 112/177/56
f 111/179/57 105/173/57 108/172/57
f 107/175/5 110/252/5 112/180/5
f 109/174/11 106/171/11 105/182/11
f 114/184/1 115/188/1 116/185/1
f 117/187/58 118/253/58 115/188/58
f 117/189/3 119/192/3 120/190/3
f 113/186/59 116/185/59 120/190/59
f 115/188/5 118/253/5 120/193/5
f 117/187/11 114/184/11 113/195/11
f 122/197/1 123/201/1 124/198/1
f 125/200/60 126/254/60 123/201/60
f 127/202/61 121/199/61 124/198/61
f 123/201/5 126/254/5 128/204/5
f 125/200/11 122/197/11 121/206/11
f 130/208/62 131/212/62 132/209/62
f 133/211/2 134/255/2 131/212/2
f 135/213/63 136/216/63 134/214/63
f 135/213/4 129/210/4 132/209/4
f 131/212/5 134/255/5 136/217/5
f 133/211/11 130/208/11 129/219/11
f 137/221/64 138/256/74 126/222/65
f 137/224/3 139/227/3 140/225/3
f 139/227/67 127/257/75 128/228/68
f 126/222/5 138/256/5 140/229/5
f 139/231/11 137/221/11 125/223/11
