# Blender v2.81 (sub 11) OBJ File: ''
# www.blender.org
mtllib wood_fence_m3_t1_tri.mtl
o wood_fence_m3_t1
v -7.091144 15.657064 130.000000
v -6.910480 7.324555 130.000000
v -6.910480 5.658725 -19.999998
v -7.091144 15.657088 -19.999996
v -14.937751 7.143888 130.000000
v -16.908840 5.478057 -19.999998
v -15.118414 15.476397 130.000000
v -17.089502 15.476420 -19.999996
v 0.259904 189.302277 150.000031
v -2.000001 189.302277 150.000031
v -2.000001 189.302307 0.000031
v 0.259904 189.302307 0.000031
v -2.000001 200.469345 150.000031
v -2.000001 201.302292 0.000033
v 0.259904 200.469345 150.000031
v 0.259904 201.302292 0.000033
v -2.000000 0.567564 17.999996
v -6.999996 0.567564 17.999996
v -6.999996 0.567565 9.999999
v -2.000000 0.567565 9.999999
v -6.999996 150.567566 13.501854
v -6.999996 200.567581 15.334177
v -6.999996 200.567581 8.334181
v -6.999996 150.567566 6.251857
v -2.000000 200.567581 15.334177
v -2.000000 200.567581 8.334181
v -2.000000 50.567562 15.667688
v -2.000000 50.567566 7.917693
v -2.000000 150.567566 6.251857
v -6.999996 50.567562 15.667691
v -2.000000 0.567550 106.999992
v -6.999996 0.567550 106.999992
v -6.999996 0.567551 100.000000
v -2.000000 0.567551 100.000000
v -6.999996 150.567551 104.501236
v -6.999996 200.567566 106.167099
v -6.999996 200.567566 99.167107
v -6.999996 150.567551 97.501244
v -2.000000 200.567566 106.167099
v -2.000000 200.567566 99.167107
v -2.000000 50.567547 105.750618
v -2.000000 50.567551 98.750626
v -2.000000 150.567551 97.501244
v -6.999996 50.567547 105.750618
v -2.000000 150.567551 104.501236
v -6.999996 100.567551 104.917694
v -2.000000 100.567551 104.917694
v -6.999996 50.567551 98.750626
v -6.999996 100.567551 97.917702
v -2.000000 100.567551 97.917702
v -2.000000 150.567566 13.501854
v -6.999996 100.567566 14.168310
v -2.000000 100.567566 14.168308
v -6.999996 50.567566 7.917693
v -6.999996 100.567566 6.668312
v -2.000000 100.567566 6.668312
v 3.919043 163.426254 149.305771
v 1.919042 163.426254 149.305771
v -2.000001 174.506638 -0.284429
v 0.000000 174.506638 -0.284429
v 1.919042 176.639435 150.284485
v -2.000001 187.719833 0.694294
v 3.919043 176.639435 150.284485
v 0.000000 187.719833 0.694294
v 0.259904 154.837555 150.200012
v -2.000001 154.837555 150.200012
v -2.000001 150.412857 0.265294
v 0.259904 150.412857 0.265294
v -2.000001 170.603317 149.734772
v -2.000001 166.178619 -0.199964
v 0.259904 170.603317 149.734772
v 0.259904 166.178619 -0.199964
v 0.000000 135.927704 145.002457
v -2.000001 135.927704 145.002457
v -2.000001 136.795364 -4.997536
v 0.000000 136.795364 -4.997536
v -2.000001 148.795319 145.002472
v -2.000001 148.795349 -4.997534
v 0.000000 148.795319 145.002472
v 0.000000 148.795349 -4.997534
v 12.531800 120.266029 150.000015
v 9.882039 120.266029 150.000015
v -2.000001 120.266052 0.000020
v 0.649761 120.266052 0.000020
v 9.882039 135.243286 150.000015
v -2.000001 135.243317 0.000022
v 12.531800 135.243286 150.000015
v 0.649761 135.243317 0.000022
v 0.000000 72.709122 150.213455
v -2.000001 72.709122 150.213455
v -2.000001 66.349815 0.348299
v 0.000000 66.349815 0.348299
v -2.000001 85.946594 149.651733
v -2.000001 79.587296 -0.213413
v 0.000000 85.946594 149.651733
v 0.000000 79.587296 -0.213413
v 1.715178 83.398514 132.000031
v -0.284823 83.398514 132.000031
v 3.703377 83.398537 -17.999969
v 5.703378 83.398537 -17.999969
v -0.284823 96.647896 132.000031
v 3.703377 96.647919 -17.999968
v 1.715178 96.647896 132.000031
v 5.703378 96.647919 -17.999968
v 0.259904 106.121895 150.000015
v -2.000001 106.121895 150.000015
v -2.000001 106.121918 0.000017
v 0.259904 106.121918 0.000017
v -2.000001 117.288971 150.000015
v -2.000001 118.121910 0.000019
v 0.259904 117.288971 150.000015
v 0.259904 118.121910 0.000019
v 0.649761 8.904220 145.002441
v -2.000001 8.904220 145.002441
v -2.000001 8.904244 -3.748166
v 0.649761 8.904244 -3.748166
v -2.000001 23.881477 146.251831
v -2.000001 23.881500 -3.748163
v 0.649761 23.881477 146.251831
v 0.649761 23.881500 -3.748163
v 0.000000 25.949137 149.502563
v -2.000001 25.949137 149.502563
v -2.000001 35.316040 -0.207192
v 0.000000 35.316040 -0.207192
v -2.000001 38.796074 150.231796
v -2.000001 47.296738 0.472858
v 0.000000 38.796074 150.231796
v 0.000000 47.296738 0.472858
v 0.259904 40.345680 149.351532
v -2.000001 40.345680 149.351532
v -2.000001 49.827278 -0.348506
v 0.259904 49.827278 -0.348506
v -2.000001 56.086761 150.348541
v -2.000001 65.568359 0.648492
v 0.259904 56.086761 150.348541
v 0.259904 65.568359 0.648492
vt 0.831821 0.984064
vt 0.882363 0.225918
vt 0.882364 0.984064
vt 0.781277 0.984064
vt 0.831820 0.225918
vt 0.983450 0.984064
vt 0.932907 0.225918
vt 0.983450 0.225918
vt 0.932907 0.984064
vt 0.833940 0.158062
vt 0.782195 0.209808
vt 0.782194 0.158062
vt 0.850406 0.157005
vt 0.902151 0.208750
vt 0.850406 0.208750
vt 0.517476 0.756985
vt 0.528663 0.128553
vt 0.528445 0.757015
vt 0.470689 0.756969
vt 0.517693 0.128523
vt 0.575232 0.757031
vt 0.589908 0.128661
vt 0.586202 0.757122
vt 0.578939 0.128570
vt 0.467420 0.119037
vt 0.517696 0.119055
vt 0.517473 0.766453
vt 0.470685 0.766437
vt 0.747599 0.901937
vt 0.765659 0.873040
vt 0.765659 0.901937
vt 0.551829 0.857328
vt 0.732591 0.882423
vt 0.551987 0.883515
vt 0.748123 0.857791
vt 0.766184 0.832506
vt 0.766184 0.857791
vt 0.190592 0.839646
vt 0.010097 0.810938
vt 0.190703 0.811652
vt 0.551985 0.795020
vt 0.732519 0.813794
vt 0.551913 0.813080
vt 0.190611 0.857707
vt 0.009983 0.839835
vt 0.748674 0.946325
vt 0.766735 0.921040
vt 0.766735 0.946325
vt 0.551807 0.964267
vt 0.732415 0.989552
vt 0.551807 0.989552
vt 0.746942 0.812033
vt 0.765003 0.786749
vt 0.765003 0.812033
vt 0.190591 0.946207
vt 0.009983 0.920922
vt 0.190591 0.920922
vt 0.551807 0.902862
vt 0.732415 0.920922
vt 0.551807 0.920922
vt 0.190591 0.964267
vt 0.009983 0.946207
vt 0.732415 0.964267
vt 0.551807 0.946206
vt 0.732415 0.946206
vt 0.371199 0.946207
vt 0.371199 0.964267
vt 0.009983 0.902862
vt 0.190591 0.902862
vt 0.371199 0.920922
vt 0.371199 0.902862
vt 0.009983 0.989552
vt 0.009983 0.964267
vt 0.190591 0.989552
vt 0.371199 0.989552
vt 0.732438 0.857138
vt 0.551810 0.839267
vt 0.732419 0.839078
vt 0.371220 0.857518
vt 0.371201 0.839456
vt 0.010169 0.792878
vt 0.190774 0.793592
vt 0.371308 0.812366
vt 0.371379 0.794306
vt 0.010177 0.886793
vt 0.010002 0.857897
vt 0.190780 0.885700
vt 0.371384 0.884608
vt 0.236744 0.759138
vt 0.247637 0.135121
vt 0.247637 0.759183
vt 0.181621 0.759138
vt 0.236744 0.135076
vt 0.313652 0.759228
vt 0.302760 0.135121
vt 0.313652 0.135166
vt 0.302760 0.759183
vt 0.181621 0.126755
vt 0.236744 0.126755
vt 0.236744 0.767459
vt 0.181621 0.767459
vt 0.674132 0.751784
vt 0.685134 0.121518
vt 0.685134 0.751811
vt 0.607857 0.121492
vt 0.674133 0.121492
vt 0.751410 0.751811
vt 0.762411 0.121544
vt 0.762411 0.751837
vt 0.751410 0.121518
vt 0.607857 0.111996
vt 0.674133 0.111996
vt 0.607857 0.751784
vt 0.674132 0.761280
vt 0.607857 0.761280
vt 0.381959 0.760023
vt 0.389234 0.136623
vt 0.392839 0.760005
vt 0.328482 0.760023
vt 0.378353 0.136641
vt 0.446312 0.759386
vt 0.449981 0.135965
vt 0.457192 0.759305
vt 0.439101 0.136046
vt 0.328483 0.128329
vt 0.378353 0.128329
vt 0.381959 0.768335
vt 0.328482 0.768335
vt 0.079212 0.762182
vt 0.090455 0.125740
vt 0.090455 0.762182
vt 0.015664 0.762182
vt 0.079212 0.125740
vt 0.165245 0.762182
vt 0.154002 0.125740
vt 0.165245 0.125740
vt 0.154003 0.762182
vt 0.015665 0.114497
vt 0.079212 0.114497
vt 0.079212 0.773425
vt 0.015664 0.773425
vt 0.236744 0.759138
vt 0.247637 0.135121
vt 0.247637 0.759183
vt 0.181621 0.759138
vt 0.236744 0.135076
vt 0.302760 0.759183
vt 0.313652 0.135166
vt 0.313652 0.759228
vt 0.302760 0.135121
vt 0.181621 0.126755
vt 0.236744 0.126755
vt 0.236744 0.767459
vt 0.181621 0.767459
vt 0.247637 0.759183
vt 0.236744 0.135076
vt 0.247637 0.135121
vt 0.181621 0.759138
vt 0.236744 0.759138
vt 0.302760 0.759183
vt 0.313652 0.135166
vt 0.313652 0.759228
vt 0.302760 0.135121
vt 0.181621 0.126755
vt 0.236744 0.126755
vt 0.236744 0.767459
vt 0.181621 0.767459
vt 0.517476 0.756985
vt 0.528663 0.128553
vt 0.528445 0.757015
vt 0.470689 0.756969
vt 0.517693 0.128523
vt 0.575232 0.757031
vt 0.589908 0.128661
vt 0.586202 0.757122
vt 0.578939 0.128570
vt 0.467420 0.119037
vt 0.517696 0.119055
vt 0.517473 0.766453
vt 0.470685 0.766437
vt 0.079212 0.762182
vt 0.090455 0.125740
vt 0.090455 0.762182
vt 0.015665 0.125740
vt 0.079212 0.125740
vt 0.154003 0.762182
vt 0.165245 0.125740
vt 0.165245 0.762182
vt 0.154002 0.125740
vt 0.015665 0.114497
vt 0.079212 0.114497
vt 0.015664 0.762182
vt 0.079212 0.773425
vt 0.015664 0.773425
vt 0.381959 0.760023
vt 0.389234 0.136623
vt 0.392839 0.760005
vt 0.328482 0.760023
vt 0.378353 0.136641
vt 0.446312 0.759386
vt 0.449981 0.135965
vt 0.457192 0.759305
vt 0.439101 0.136046
vt 0.328483 0.128329
vt 0.378353 0.128329
vt 0.381959 0.768335
vt 0.328482 0.768335
vt 0.674132 0.751784
vt 0.685134 0.121518
vt 0.685134 0.751811
vt 0.607857 0.751784
vt 0.674133 0.121492
vt 0.751410 0.751811
vt 0.762411 0.121544
vt 0.762411 0.751837
vt 0.751410 0.121518
vt 0.607857 0.111996
vt 0.674133 0.111996
vt 0.674132 0.761280
vt 0.607857 0.761280
vt 0.781277 0.225918
vt 0.833940 0.209808
vt 0.902151 0.157005
vt 0.467417 0.128506
vt 0.747599 0.873040
vt 0.748123 0.832506
vt 0.732590 0.795734
vt 0.748674 0.921040
vt 0.746943 0.786749
vt 0.732415 0.902862
vt 0.181622 0.135076
vt 0.328483 0.136641
vt 0.015665 0.125740
vt 0.181622 0.135076
vt 0.181622 0.135076
vt 0.467417 0.128506
vt 0.328483 0.136641
vt 0.607857 0.121492
vn 0.9998 0.0215 -0.0000
vn 0.9998 0.0182 -0.0002
vn 0.9998 0.0217 0.0000
vn 0.0223 -0.9997 0.0111
vn 0.0182 -0.9998 0.0109
vn 0.0225 -0.9997 0.0111
vn -0.9997 -0.0215 0.0131
vn -0.9997 -0.0182 0.0133
vn -0.9997 -0.0181 0.0133
vn -0.0223 0.9998 0.0000
vn -0.0182 0.9998 0.0002
vn -0.0181 0.9998 0.0002
vn -0.0000 0.0000 -1.0000
vn -0.0000 0.0000 1.0000
vn 0.0000 -1.0000 -0.0000
vn -1.0000 -0.0000 0.0000
vn 0.0000 1.0000 0.0056
vn 1.0000 -0.0000 0.0000
vn 0.0000 1.0000 0.0000
vn 0.0000 0.0166 -0.9999
vn 0.0000 0.0416 -0.9991
vn 0.0000 0.0383 0.9993
vn 0.0000 0.0466 0.9989
vn 0.0000 0.0125 -0.9999
vn 0.0000 0.0333 -0.9994
vn 0.0000 0.0208 0.9998
vn 0.0000 0.0250 0.9997
vn 0.0000 -0.0333 0.9994
vn 0.0000 -0.0125 0.9999
vn 0.0000 0.0125 0.9999
vn 0.0000 -0.0250 -0.9997
vn 0.0000 -0.0208 -0.9998
vn 0.0000 -0.0125 -0.9999
vn 0.0000 -0.0366 0.9993
vn 0.0000 -0.0117 0.9999
vn 0.0000 0.0217 0.9998
vn 0.0000 -0.0416 -0.9991
vn 0.0000 -0.0333 -0.9994
vn 0.0000 -0.0167 -0.9999
vn 0.0000 -0.9973 -0.0739
vn -0.9997 -0.0019 0.0260
vn 0.0000 0.9973 0.0739
vn 0.9997 0.0019 -0.0260
vn 0.0000 0.0739 -0.9973
vn 0.0000 -0.0739 0.9973
vn 0.0000 -0.9996 0.0295
vn 0.0000 0.9996 -0.0295
vn 0.0000 -0.0295 -0.9996
vn 0.0000 0.0295 0.9996
vn 0.0000 -1.0000 -0.0058
vn -0.9969 -0.0000 0.0790
vn 0.9969 -0.0000 -0.0790
vn 0.0000 -0.9991 0.0424
vn 0.0000 0.9991 -0.0424
vn 0.0000 -0.0424 -0.9991
vn 0.0000 0.0424 0.9991
vn -0.9996 0.0000 -0.0266
vn 0.9996 -0.0000 0.0266
vn 0.0000 -0.0831 0.9965
vn 0.0000 -0.9980 -0.0624
vn 0.0000 0.9984 0.0567
vn 0.0000 0.0567 -0.9984
vn 0.0000 -0.0567 0.9984
vn 0.0000 -0.9980 -0.0632
vn 0.0000 0.9980 0.0632
vn 0.0000 0.0632 -0.9980
vn 0.0000 -0.0632 0.9980
vn 0.9998 0.0181 -0.0002
vn 0.0181 -0.9998 0.0109
vn -0.9997 -0.0217 0.0131
vn -0.0225 0.9997 0.0000
usemtl wood_fence_t1_m.002
s 1
f 2/1/1 4/2/2 1/3/3
f 5/4/4 3/5/5 2/1/6
f 5/6/7 8/7/8 6/8/9
f 7/9/10 4/2/11 8/7/12
f 3/10/13 8/11/13 4/12/13
f 7/13/14 2/14/14 1/15/14
f 10/16/15 12/17/15 9/18/15
f 13/19/16 11/20/16 10/16/16
f 15/21/17 14/22/17 13/23/17
f 15/21/18 12/17/18 16/24/18
f 11/20/13 16/25/13 12/26/13
f 13/19/14 9/27/14 15/28/14
f 18/29/15 20/30/15 17/31/15
f 21/32/16 23/33/16 24/34/16
f 25/35/19 23/36/19 22/37/19
f 27/38/18 20/39/18 28/40/18
f 24/41/20 26/42/21 29/43/20
f 30/44/22 17/45/23 27/38/22
f 32/46/15 34/47/15 31/48/15
f 35/49/16 37/50/16 38/51/16
f 39/52/19 37/53/19 36/54/19
f 41/55/18 34/56/18 42/57/18
f 38/58/24 40/59/25 43/60/24
f 44/61/26 31/62/27 41/55/26
f 36/63/28 45/64/29 39/65/28
f 35/49/29 47/66/30 45/64/29
f 46/67/30 41/55/26 47/66/30
f 33/68/31 42/57/32 34/56/31
f 48/69/32 50/70/33 42/57/32
f 49/71/33 43/60/24 50/70/33
f 45/64/18 40/59/18 39/65/18
f 45/64/18 50/70/18 43/60/18
f 47/66/18 42/57/18 50/70/18
f 44/61/16 33/72/16 32/73/16
f 46/67/16 48/74/16 44/61/16
f 35/49/16 49/75/16 46/67/16
f 22/76/34 51/77/35 25/78/34
f 51/77/35 52/79/36 53/80/36
f 52/79/36 27/38/22 53/80/36
f 19/81/37 28/40/38 20/39/37
f 54/82/38 56/83/39 28/40/38
f 55/84/39 29/43/20 56/83/39
f 51/77/18 26/42/18 25/78/18
f 51/77/18 56/83/18 29/43/18
f 53/80/18 28/40/18 56/83/18
f 30/44/16 19/85/16 18/86/16
f 52/79/16 54/87/16 30/44/16
f 21/32/16 55/88/16 52/79/16
f 58/89/40 60/90/40 57/91/40
f 61/92/41 59/93/41 58/89/41
f 61/94/42 64/95/42 62/96/42
f 57/91/43 64/95/43 63/97/43
f 59/93/44 64/98/44 60/99/44
f 61/92/45 57/100/45 63/101/45
f 66/102/46 68/103/46 65/104/46
f 66/102/16 70/105/16 67/106/16
f 71/107/47 70/108/47 69/109/47
f 65/104/18 72/110/18 71/107/18
f 67/106/48 72/111/48 68/112/48
f 69/113/49 65/114/49 71/115/49
f 74/116/50 76/117/50 73/118/50
f 77/119/16 75/120/16 74/116/16
f 79/121/19 78/122/19 77/123/19
f 79/121/18 76/117/18 80/124/18
f 75/120/13 80/125/13 76/126/13
f 77/119/14 73/127/14 79/128/14
f 82/129/15 84/130/15 81/131/15
f 85/132/51 83/133/51 82/129/51
f 85/134/19 88/135/19 86/136/19
f 81/131/52 88/135/52 87/137/52
f 83/133/13 88/138/13 84/139/13
f 85/132/14 81/140/14 87/141/14
f 90/142/53 92/143/53 89/144/53
f 93/145/16 91/146/16 90/142/16
f 95/147/54 94/148/54 93/149/54
f 95/147/18 92/143/18 96/150/18
f 91/146/55 96/151/55 92/152/55
f 93/145/56 89/153/56 95/154/56
f 97/155/15 99/156/15 100/157/15
f 101/158/57 99/156/57 98/159/57
f 103/160/19 102/161/19 101/162/19
f 97/155/58 104/163/58 103/160/58
f 99/156/13 104/164/13 100/165/13
f 101/158/14 97/166/14 103/167/14
f 106/168/15 108/169/15 105/170/15
f 109/171/16 107/172/16 106/168/16
f 111/173/17 110/174/17 109/175/17
f 111/173/18 108/169/18 112/176/18
f 107/172/13 112/177/13 108/178/13
f 109/171/14 105/179/14 111/180/14
f 114/181/15 116/182/15 113/183/15
f 114/181/16 118/184/16 115/185/16
f 119/186/19 118/187/19 117/188/19
f 113/183/18 120/189/18 119/186/18
f 115/185/13 120/190/13 116/191/13
f 117/192/59 113/193/59 119/194/59
f 122/195/60 124/196/60 121/197/60
f 125/198/16 123/199/16 122/195/16
f 127/200/61 126/201/61 125/202/61
f 127/200/18 124/196/18 128/203/18
f 123/199/62 128/204/62 124/205/62
f 125/198/63 121/206/63 127/207/63
f 130/208/64 132/209/64 129/210/64
f 133/211/16 131/212/16 130/208/16
f 135/213/65 134/214/65 133/215/65
f 129/210/18 136/216/18 135/213/18
f 131/212/66 136/217/66 132/218/66
f 133/211/67 129/219/67 135/220/67
f 2/1/1 3/5/68 4/2/2
f 5/4/4 6/221/69 3/5/5
f 5/6/7 7/9/70 8/7/8
f 7/9/10 1/3/71 4/2/11
f 3/10/13 6/222/13 8/11/13
f 7/13/14 5/223/14 2/14/14
f 10/16/15 11/20/15 12/17/15
f 13/19/16 14/224/16 11/20/16
f 15/21/17 16/24/17 14/22/17
f 15/21/18 9/18/18 12/17/18
f 11/20/13 14/224/13 16/25/13
f 13/19/14 10/16/14 9/27/14
f 18/29/15 19/225/15 20/30/15
f 21/32/16 22/76/16 23/33/16
f 25/35/19 26/226/19 23/36/19
f 27/38/18 17/45/18 20/39/18
f 24/41/20 23/227/21 26/42/21
f 30/44/22 18/86/23 17/45/23
f 32/46/15 33/228/15 34/47/15
f 35/49/16 36/63/16 37/50/16
f 39/52/19 40/229/19 37/53/19
f 41/55/18 31/62/18 34/56/18
f 38/58/24 37/230/25 40/59/25
f 44/61/26 32/73/27 31/62/27
f 36/63/28 35/49/29 45/64/29
f 35/49/29 46/67/30 47/66/30
f 46/67/30 44/61/26 41/55/26
f 33/68/31 48/69/32 42/57/32
f 48/69/32 49/71/33 50/70/33
f 49/71/33 38/58/24 43/60/24
f 45/64/18 43/60/18 40/59/18
f 45/64/18 47/66/18 50/70/18
f 47/66/18 41/55/18 42/57/18
f 44/61/16 48/74/16 33/72/16
f 46/67/16 49/75/16 48/74/16
f 35/49/16 38/51/16 49/75/16
f 22/76/34 21/32/35 51/77/35
f 51/77/35 21/32/35 52/79/36
f 52/79/36 30/44/22 27/38/22
f 19/81/37 54/82/38 28/40/38
f 54/82/38 55/84/39 56/83/39
f 55/84/39 24/41/20 29/43/20
f 51/77/18 29/43/18 26/42/18
f 51/77/18 53/80/18 56/83/18
f 53/80/18 27/38/18 28/40/18
f 30/44/16 54/87/16 19/85/16
f 52/79/16 55/88/16 54/87/16
f 21/32/16 24/34/16 55/88/16
f 58/89/40 59/93/40 60/90/40
f 61/92/41 62/231/41 59/93/41
f 61/94/42 63/97/42 64/95/42
f 57/91/43 60/90/43 64/95/43
f 59/93/44 62/231/44 64/98/44
f 61/92/45 58/89/45 57/100/45
f 66/102/46 67/106/46 68/103/46
f 66/102/16 69/113/16 70/105/16
f 71/107/47 72/110/47 70/108/47
f 65/104/18 68/103/18 72/110/18
f 67/106/48 70/105/48 72/111/48
f 69/113/49 66/102/49 65/114/49
f 74/116/50 75/120/50 76/117/50
f 77/119/16 78/232/16 75/120/16
f 79/121/19 80/124/19 78/122/19
f 79/121/18 73/118/18 76/117/18
f 75/120/13 78/232/13 80/125/13
f 77/119/14 74/116/14 73/127/14
f 82/129/15 83/133/15 84/130/15
f 85/132/51 86/233/51 83/133/51
f 85/134/19 87/137/19 88/135/19
f 81/131/52 84/130/52 88/135/52
f 83/133/13 86/233/13 88/138/13
f 85/132/14 82/129/14 81/140/14
f 90/142/53 91/146/53 92/143/53
f 93/145/16 94/234/16 91/146/16
f 95/147/54 96/150/54 94/148/54
f 95/147/18 89/144/18 92/143/18
f 91/146/55 94/234/55 96/151/55
f 93/145/56 90/142/56 89/153/56
f 97/155/15 98/159/15 99/156/15
f 101/158/57 102/235/57 99/156/57
f 103/160/19 104/163/19 102/161/19
f 97/155/58 100/157/58 104/163/58
f 99/156/13 102/235/13 104/164/13
f 101/158/14 98/159/14 97/166/14
f 106/168/15 107/172/15 108/169/15
f 109/171/16 110/236/16 107/172/16
f 111/173/17 112/176/17 110/174/17
f 111/173/18 105/170/18 108/169/18
f 107/172/13 110/236/13 112/177/13
f 109/171/14 106/168/14 105/179/14
f 114/181/15 115/185/15 116/182/15
f 114/181/16 117/192/16 118/184/16
f 119/186/19 120/189/19 118/187/19
f 113/183/18 116/182/18 120/189/18
f 115/185/13 118/184/13 120/190/13
f 117/192/59 114/181/59 113/193/59
f 122/195/60 123/199/60 124/196/60
f 125/198/16 126/237/16 123/199/16
f 127/200/61 128/203/61 126/201/61
f 127/200/18 121/197/18 124/196/18
f 123/199/62 126/237/62 128/204/62
f 125/198/63 122/195/63 121/206/63
f 130/208/64 131/212/64 132/209/64
f 133/211/16 134/238/16 131/212/16
f 135/213/65 136/216/65 134/214/65
f 129/210/18 132/209/18 136/216/18
f 131/212/66 134/238/66 136/217/66
f 133/211/67 130/208/67 129/219/67
